<?xml version='1.0' encoding='utf-8'?>
<!DOCTYPE svg PUBLIC '-//W3C//DTD SVG 1.1//EN' 'http://www.w3.org/Graphics/SVG/1.1/DTD/svg11.dtd'>
<!-- Uploaded to: SVG Repo, www.svgrepo.com, Generator: SVG Repo Mixer Tools -->
<svg fill="#000000" height="800px" width="800px" version="1.1" xmlns="http://www.w3.org/2000/svg" viewBox="0 0 512 512" xmlns:xlink="http://www.w3.org/1999/xlink" enable-background="new 0 0 512 512">
  <g>
    <g>
      <path d="m392.5,239.1l-187.6-130.6c-10-7.4-30.6-3.7-32.1,16.8v261.2c1.1,24.2 24.7,22.8 32.1,16.8l187.6-130.6c6.7-4.1 16.2-20 0-33.6zm-178.8,108.3v-183l131.4,91.5-131.4,91.5z"/>
      <path d="M256,11C120.9,11,11,120.9,11,256s109.9,245,245,245s245-109.9,245-245S391.1,11,256,11z M256,460.2    c-112.6,0-204.2-91.6-204.2-204.2S143.4,51.8,256,51.8S460.2,143.4,460.2,256S368.6,460.2,256,460.2z"/>
    </g>
  </g>
</svg>